<svg width="9" height="6" viewBox="0 0 9 6" fill="none" xmlns="http://www.w3.org/2000/svg">
<path d="M4.3913 5.47921C4.28695 5.47921 4.186 5.45837 4.08843 5.41671C3.99035 5.37504 3.90869 5.31948 3.84348 5.25004L0.243476 1.41671C0.0999981 1.26393 0.0282593 1.06948 0.0282593 0.833374C0.0282593 0.597262 0.0999981 0.402818 0.243476 0.25004C0.386955 0.0972626 0.569564 0.020874 0.791303 0.020874C1.01304 0.020874 1.19565 0.0972626 1.33913 0.25004L4.3913 3.50004L7.44348 0.25004C7.58695 0.0972626 7.76956 0.020874 7.9913 0.020874C8.21304 0.020874 8.39565 0.0972626 8.53913 0.25004C8.68261 0.402818 8.75435 0.597262 8.75435 0.833374C8.75435 1.06948 8.68261 1.26393 8.53913 1.41671L4.93913 5.25004C4.86087 5.33337 4.77608 5.39226 4.68478 5.42671C4.59348 5.46171 4.49565 5.47921 4.3913 5.47921Z" fill="white"/>
</svg>
