<svg width="6" height="9" viewBox="0 0 6 9" fill="none" xmlns="http://www.w3.org/2000/svg">
<path d="M5.47909 4.60864C5.47909 4.71298 5.45825 4.81394 5.41658 4.91151C5.37492 5.00959 5.31936 5.09124 5.24992 5.15646L1.41659 8.75646C1.26381 8.89994 1.06936 8.97168 0.833251 8.97168C0.59714 8.97168 0.402696 8.89994 0.249918 8.75646C0.0971405 8.61298 0.0207519 8.43038 0.0207519 8.20864C0.0207519 7.9869 0.0971405 7.80429 0.249918 7.66081L3.49992 4.60864L0.249918 1.55646C0.0971402 1.41299 0.0207516 1.23038 0.0207516 1.00864C0.0207516 0.786898 0.0971402 0.60429 0.249918 0.460812C0.402696 0.317333 0.59714 0.245593 0.833251 0.245593C1.06936 0.245593 1.26381 0.317333 1.41659 0.460812L5.24992 4.06081C5.33325 4.13907 5.39214 4.22385 5.42658 4.31516C5.46158 4.40646 5.47909 4.50429 5.47909 4.60864Z" fill="white"/>
</svg>
