<svg width="16" height="16" viewBox="0 0 16 16" fill="none" xmlns="http://www.w3.org/2000/svg">
<path d="M14.1091 2.1816H13.2364V0.727051H11.4909V2.1816H4.50904V0.727051H2.76358V2.1816H1.89085C0.922117 2.1816 0.154113 2.83615 0.154113 3.63616L0.145386 13.818C0.145386 14.618 0.922117 15.2726 1.89085 15.2726H14.1091C15.0691 15.2726 15.8546 14.618 15.8546 13.818V3.63616C15.8546 2.83615 15.0691 2.1816 14.1091 2.1816ZM14.1091 13.818H1.89085V6.54526H14.1091V13.818ZM5.38178 9.45437H3.63631V7.99981H5.38178V9.45437ZM8.8727 9.45437H7.12724V7.99981H8.8727V9.45437ZM12.3636 9.45437H10.6182V7.99981H12.3636V9.45437ZM5.38178 12.3635H3.63631V10.9089H5.38178V12.3635ZM8.8727 12.3635H7.12724V10.9089H8.8727V12.3635ZM12.3636 12.3635H10.6182V10.9089H12.3636V12.3635Z" fill="#4587FF"/>
</svg>
