<svg width="40" height="40" viewBox="0 0 40 40" fill="none" xmlns="http://www.w3.org/2000/svg">
<circle cx="20" cy="20" r="20" fill="#3F8CFF" fill-opacity="0.15"/>
<circle cx="20" cy="20" r="19.5" stroke="url(#paint0_linear_1443_210)" stroke-opacity="0.5"/>
<path d="M16.5913 27.0608C16.3681 26.8376 16.2565 26.5535 16.2565 26.2086C16.2565 25.8637 16.3681 25.5796 16.5913 25.3564L21.3391 20.6086L16.5913 15.8608C16.3681 15.6376 16.2565 15.3535 16.2565 15.0086C16.2565 14.6637 16.3681 14.3796 16.5913 14.1564C16.8145 13.9332 17.0986 13.8217 17.4435 13.8217C17.7884 13.8217 18.0725 13.9332 18.2957 14.1564L23.8957 19.7564C24.0174 19.8782 24.1038 20.0101 24.155 20.1521C24.2053 20.2941 24.2304 20.4463 24.2304 20.6086C24.2304 20.7709 24.2053 20.9231 24.155 21.0651C24.1038 21.2072 24.0174 21.339 23.8957 21.4608L18.2957 27.0608C18.0725 27.284 17.7884 27.3956 17.4435 27.3956C17.0986 27.3956 16.8145 27.284 16.5913 27.0608Z" fill="#3F8CFF"/>
<defs>
<linearGradient id="paint0_linear_1443_210" x1="7.91667" y1="4.16667" x2="32.5" y2="35.8333" gradientUnits="userSpaceOnUse">
<stop stop-color="white" stop-opacity="0.14"/>
<stop offset="0.497576" stop-color="white" stop-opacity="0.02"/>
<stop offset="1" stop-color="white" stop-opacity="0.14"/>
</linearGradient>
</defs>
</svg>
