<svg width="16" height="16" viewBox="0 0 16 16" fill="none" xmlns="http://www.w3.org/2000/svg">
<circle cx="7.54243" cy="7.54247" r="7.54247" transform="rotate(90 7.54243 7.54247)" fill="#2E2F3E"/>
<path d="M10.5421 4.5428C10.7261 4.72684 10.726 5.02575 10.5421 5.20986L8.20878 7.54317L10.5421 9.87649C10.7262 10.0606 10.7262 10.3594 10.5421 10.5435C10.358 10.7273 10.059 10.7275 9.87504 10.5435L7.54173 8.21023L5.20911 10.5429C5.02501 10.7269 4.72614 10.7269 4.54205 10.5429C4.35826 10.3587 4.35806 10.0598 4.54205 9.87579L6.87467 7.54317L4.54205 5.21055C4.35814 5.02655 4.35829 4.72758 4.54205 4.54349C4.72612 4.35942 5.025 4.35948 5.20911 4.54349L7.54173 6.87612L9.87504 4.5428C10.059 4.35896 10.358 4.35907 10.5421 4.5428Z" fill="white"/>
</svg>
