<svg width="16" height="16" viewBox="0 0 16 16" fill="none" xmlns="http://www.w3.org/2000/svg">
<circle cx="7.54243" cy="7.54247" r="7.54247" transform="rotate(90 7.54243 7.54247)" fill="#3F8CFF"/>
<path d="M11.1465 5.14651C11.3418 4.95125 11.6583 4.95125 11.8536 5.14651C12.0488 5.34178 12.0488 5.6583 11.8536 5.85355L6.85358 10.8535C6.8206 10.8865 6.78293 10.9118 6.7442 10.9336C6.72806 10.9427 6.71223 10.9518 6.69537 10.959C6.68613 10.9629 6.67647 10.9654 6.66705 10.9688C6.64956 10.975 6.63228 10.9812 6.61432 10.9854C6.60039 10.9886 6.58644 10.9911 6.57233 10.9932C6.5538 10.9959 6.53534 10.9974 6.51666 10.9981C6.50654 10.9984 6.49651 10.9984 6.48639 10.9981C6.46571 10.9975 6.44536 10.9953 6.42487 10.9922C6.41512 10.9907 6.40523 10.9904 6.39557 10.9883C6.369 10.9827 6.34298 10.9749 6.31744 10.9649C6.31485 10.9639 6.31221 10.963 6.30963 10.9619C6.28037 10.9499 6.25167 10.9358 6.22467 10.918L6.14655 10.8535L3.14655 7.85355C2.95128 7.65828 2.95128 7.34178 3.14655 7.14651C3.34181 6.95125 3.65831 6.95125 3.85358 7.14651L6.50006 9.793L11.1465 5.14651Z" fill="white"/>
</svg>
