<svg width="21" height="20" viewBox="0 0 21 20" fill="none" xmlns="http://www.w3.org/2000/svg">
<path fill-rule="evenodd" clip-rule="evenodd" d="M5.18508 2.8893C2.64278 4.77703 1.37162 5.7209 0.872368 7.11512C0.832318 7.22696 0.796295 7.34027 0.764372 7.45481C0.366416 8.88267 0.851953 10.4099 1.82303 13.4643C2.7941 16.5187 3.27964 18.0459 4.4228 18.962C4.5145 19.0355 4.60881 19.1055 4.70554 19.172C5.91131 20 7.48254 20 10.625 20C13.7675 20 15.3387 20 16.5445 19.172C16.6412 19.1055 16.7355 19.0355 16.8272 18.962C17.9704 18.0459 18.4559 16.5187 19.427 13.4643C20.398 10.4099 20.8836 8.88267 20.4856 7.45481C20.4537 7.34027 20.4177 7.22696 20.3776 7.11512C19.8784 5.7209 18.6072 4.77704 16.0649 2.88931C13.5226 1.00158 12.2515 0.0577022 10.7997 0.00327462C10.6833 -0.00109154 10.5667 -0.00109154 10.4503 0.00327462C8.99854 0.0577022 7.72738 1.00157 5.18508 2.8893ZM8.71837 14.6821C8.3235 14.6821 8.00339 15.0093 8.00339 15.4129C8.00339 15.8164 8.3235 16.1436 8.71837 16.1436H12.5316C12.9265 16.1436 13.2466 15.8164 13.2466 15.4129C13.2466 15.0093 12.9265 14.6821 12.5316 14.6821H8.71837Z" fill="#3F8CFF"/>
</svg>
