<svg width="21" height="20" viewBox="0 0 21 20" fill="none" xmlns="http://www.w3.org/2000/svg">
<path fill-rule="evenodd" clip-rule="evenodd" d="M0.625 10C0.625 4.47715 5.10215 0 10.625 0C16.1478 0 20.625 4.47715 20.625 10C20.625 12.8358 19.4437 15.3968 17.5483 17.2159C15.7521 18.9396 13.3117 20 10.625 20C7.93832 20 5.49786 18.9396 3.70175 17.2159C1.80629 15.3968 0.625 12.8358 0.625 10ZM16.2837 16.4824C15.8828 15.283 14.7495 14.4186 13.4157 14.4186H7.8343C6.50047 14.4186 5.36724 15.283 4.96627 16.4824C6.47944 17.8045 8.45814 18.6047 10.625 18.6047C12.7919 18.6047 14.7706 17.8045 16.2837 16.4824ZM10.625 2.7907C8.18467 2.7907 6.2064 4.76897 6.2064 7.2093C6.2064 9.64963 8.18467 11.6279 10.625 11.6279C13.0653 11.6279 15.0436 9.64963 15.0436 7.2093C15.0436 4.76897 13.0653 2.7907 10.625 2.7907Z" fill="#4587FF"/>
</svg>
