<svg width="23" height="22" viewBox="0 0 23 22" fill="none" xmlns="http://www.w3.org/2000/svg">
<path d="M15.625 8H14.975C14.975 9.85015 13.4752 11.35 11.625 11.35V12V12.65C14.1931 12.65 16.275 10.5681 16.275 8H15.625ZM11.625 12V11.35C9.77485 11.35 8.275 9.85015 8.275 8H7.625H6.975C6.975 10.5681 9.05688 12.65 11.625 12.65V12ZM7.625 8H8.275C8.275 6.14985 9.77485 4.65 11.625 4.65V4V3.35C9.05688 3.35 6.975 5.43188 6.975 8H7.625ZM11.625 4V4.65C13.4752 4.65 14.975 6.14985 14.975 8H15.625H16.275C16.275 5.43188 14.1931 3.35 11.625 3.35V4ZM8.625 15V15.65H14.625V15V14.35H8.625V15ZM1.625 11H2.275C2.275 5.83614 6.46114 1.65 11.625 1.65V1V0.35C5.74317 0.35 0.975 5.11817 0.975 11H1.625ZM11.625 1V1.65C16.7889 1.65 20.975 5.83614 20.975 11H21.625H22.275C22.275 5.11817 17.5068 0.35 11.625 0.35V1ZM21.625 11H20.975C20.975 13.6516 19.872 16.0446 18.0981 17.747L18.5482 18.2159L18.9983 18.6849C21.017 16.7475 22.275 14.0201 22.275 11H21.625ZM18.5482 18.2159L18.0981 17.747C16.4175 19.3598 14.1376 20.35 11.625 20.35V21V21.65C14.4864 21.65 17.0853 20.5207 18.9983 18.6849L18.5482 18.2159ZM14.625 15V15.65C16.2497 15.65 17.6055 16.8072 17.9107 18.3426L18.5482 18.2159L19.1857 18.0892C18.762 15.9572 16.8819 14.35 14.625 14.35V15ZM11.625 21V20.35C9.11242 20.35 6.83247 19.3598 5.15188 17.747L4.70181 18.2159L4.25175 18.6849C6.16469 20.5207 8.76365 21.65 11.625 21.65V21ZM4.70181 18.2159L5.15188 17.747C3.37796 16.0446 2.275 13.6516 2.275 11H1.625H0.975C0.975 14.0201 2.23297 16.7475 4.25175 18.6849L4.70181 18.2159ZM8.625 15V14.35C6.36808 14.35 4.488 15.9572 4.06428 18.0892L4.70181 18.2159L5.33934 18.3426C5.6445 16.8072 7.00033 15.65 8.625 15.65V15Z" fill="#9E9E9E"/>
</svg>
