<svg width="21" height="20" viewBox="0 0 21 20" fill="none" xmlns="http://www.w3.org/2000/svg">
<path fill-rule="evenodd" clip-rule="evenodd" d="M19.7695 2.86976C20.375 3.99405 20.375 5.46583 20.375 8.4094V11.2464C20.375 11.5403 20.375 11.6873 20.3688 11.8115C20.2333 14.5188 17.9439 16.6848 15.0822 16.8129C14.9509 16.8188 14.7776 16.8188 14.431 16.8188L14.342 16.8189C13.2084 16.8258 12.1042 17.1606 11.1775 17.7783L11.1186 17.818L8.21775 19.7783C7.22333 20.4502 5.91659 19.4798 6.37045 18.4063C6.69194 17.6459 6.10001 16.8188 5.23435 16.8188H4.56573C2.25125 16.8188 0.375 15.0438 0.375 12.8541V8.4094C0.375 5.46583 0.375 3.99405 0.980519 2.86976C1.51315 1.8808 2.36304 1.07675 3.40839 0.572856C4.59679 0 6.15249 0 9.26389 0H11.4861C14.5975 0 16.1532 0 17.3416 0.572856C18.387 1.07675 19.2369 1.8808 19.7695 2.86976ZM7.04167 8.4094C7.04167 8.98995 6.54421 9.46058 5.93056 9.46058C5.31691 9.46058 4.81944 8.98995 4.81944 8.4094C4.81944 7.82885 5.31691 7.35823 5.93056 7.35823C6.54421 7.35823 7.04167 7.82885 7.04167 8.4094ZM11.4861 8.4094C11.4861 8.98995 10.9886 9.46058 10.375 9.46058C9.76135 9.46058 9.26389 8.98995 9.26389 8.4094C9.26389 7.82885 9.76135 7.35823 10.375 7.35823C10.9886 7.35823 11.4861 7.82885 11.4861 8.4094ZM14.8194 9.46058C15.4331 9.46058 15.9306 8.98995 15.9306 8.4094C15.9306 7.82885 15.4331 7.35823 14.8194 7.35823C14.2058 7.35823 13.7083 7.82885 13.7083 8.4094C13.7083 8.98995 14.2058 9.46058 14.8194 9.46058Z" fill="#3F8CFF"/>
</svg>
