<svg width="23" height="22" viewBox="0 0 23 22" fill="none" xmlns="http://www.w3.org/2000/svg">
<path d="M2.82303 14.4643L3.5194 14.2429L2.82303 14.4643ZM1.76437 8.45481L2.46826 8.65099L1.76437 8.45481ZM6.18508 3.8893L5.74946 3.30263H5.74946L6.18508 3.8893ZM1.87237 8.11512L2.56031 8.36146L1.87237 8.11512ZM5.70554 20.172L5.29188 20.7743H5.29188L5.70554 20.172ZM5.4228 19.962L4.96585 20.5322L5.4228 19.962ZM20.427 14.4643L19.7306 14.2429L20.427 14.4643ZM17.8272 19.962L18.2842 20.5322L17.8272 19.962ZM17.5445 20.172L17.9581 20.7743L17.5445 20.172ZM17.0649 3.8893L17.5005 3.30263L17.0649 3.8893ZM21.3776 8.11512L20.6897 8.36146L21.3776 8.11512ZM21.4856 8.45481L20.7817 8.65099L21.4856 8.45481ZM11.7997 1.00327L11.7724 1.73348L11.7997 1.00327ZM11.4503 1.00327L11.4776 1.73348L11.4503 1.00327ZM9.71838 15.6822C9.31481 15.6822 8.98766 16.0093 8.98766 16.4129C8.98766 16.8164 9.31481 17.1436 9.71838 17.1436V15.6822ZM13.5316 17.1436C13.9352 17.1436 14.2623 16.8164 14.2623 16.4129C14.2623 16.0093 13.9352 15.6822 13.5316 15.6822V17.1436ZM2.82303 14.4643L3.5194 14.2429C3.02915 12.7009 2.67961 11.5983 2.49616 10.7029C2.31605 9.82391 2.31181 9.21231 2.46826 8.65099L1.76437 8.45481L1.06048 8.25863C0.818973 9.12517 0.858524 9.99111 1.06447 10.9963C1.26707 11.9851 1.64583 13.1733 2.12666 14.6857L2.82303 14.4643ZM6.18508 3.8893L5.74946 3.30263C4.49107 4.23703 3.49995 4.97171 2.76616 5.65108C2.01932 6.34252 1.48786 7.02142 1.18443 7.86878L1.87237 8.11512L2.56031 8.36146C2.75613 7.8146 3.10987 7.32446 3.759 6.72347C4.42118 6.11042 5.33679 5.42931 6.6207 4.47597L6.18508 3.8893ZM1.76437 8.45481L2.46826 8.65099C2.49547 8.55334 2.52618 8.45677 2.56031 8.36146L1.87237 8.11512L1.18443 7.86878C1.13846 7.99716 1.09712 8.1272 1.06048 8.25863L1.76437 8.45481ZM11.625 21V20.2693C10.0375 20.2693 8.90626 20.2683 8.01929 20.1702C7.15025 20.0741 6.58701 19.8909 6.1192 19.5696L5.70554 20.172L5.29188 20.7743C6.02983 21.2811 6.85509 21.5118 7.85872 21.6228C8.84443 21.7317 10.07 21.7307 11.625 21.7307V21ZM2.82303 14.4643L2.12666 14.6857C2.60745 16.198 2.98445 17.3869 3.38935 18.3089C3.80077 19.2456 4.26795 19.973 4.96585 20.5322L5.4228 19.962L5.87975 19.3918C5.43448 19.035 5.08732 18.5407 4.72741 17.7212C4.36099 16.8869 4.00968 15.785 3.5194 14.2429L2.82303 14.4643ZM5.70554 20.172L6.1192 19.5696C6.03731 19.5134 5.95744 19.4541 5.87975 19.3918L5.4228 19.962L4.96585 20.5322C5.07156 20.6169 5.18031 20.6977 5.29188 20.7743L5.70554 20.172ZM20.427 14.4643L19.7306 14.2429C19.2403 15.785 18.889 16.8869 18.5226 17.7212C18.1627 18.5407 17.8155 19.035 17.3702 19.3918L17.8272 19.962L18.2842 20.5322C18.982 19.973 19.4492 19.2456 19.8607 18.3089C20.2656 17.3869 20.6425 16.198 21.1233 14.6857L20.427 14.4643ZM11.625 21V21.7307C13.18 21.7307 14.4056 21.7317 15.3913 21.6228C16.3949 21.5118 17.2202 21.2811 17.9581 20.7743L17.5445 20.172L17.1308 19.5696C16.663 19.8909 16.0998 20.0741 15.2307 20.1702C14.3437 20.2683 13.2125 20.2693 11.625 20.2693V21ZM17.8272 19.962L17.3702 19.3918C17.2926 19.4541 17.2127 19.5134 17.1308 19.5696L17.5445 20.172L17.9581 20.7743C18.0697 20.6977 18.1784 20.6169 18.2842 20.5322L17.8272 19.962ZM17.0649 3.8893L16.6293 4.47597C17.9132 5.42931 18.8288 6.11042 19.491 6.72347C20.1401 7.32446 20.4939 7.8146 20.6897 8.36146L21.3776 8.11512L22.0656 7.86878C21.7621 7.02142 21.2307 6.34252 20.4838 5.65108C19.75 4.97171 18.7589 4.23703 17.5005 3.30263L17.0649 3.8893ZM20.427 14.4643L21.1233 14.6857C21.6042 13.1733 21.9829 11.9851 22.1855 10.9963C22.3915 9.99111 22.431 9.12517 22.1895 8.25863L21.4856 8.45481L20.7817 8.65099C20.9382 9.21231 20.9339 9.82391 20.7538 10.7029C20.5704 11.5983 20.2209 12.7009 19.7306 14.2429L20.427 14.4643ZM21.3776 8.11512L20.6897 8.36146C20.7238 8.45676 20.7545 8.55334 20.7817 8.65099L21.4856 8.45481L22.1895 8.25863C22.1529 8.1272 22.1115 7.99716 22.0656 7.86878L21.3776 8.11512ZM17.0649 3.8893L17.5005 3.30263C16.2423 2.36835 15.2521 1.63187 14.3928 1.12834C13.5187 0.616201 12.7182 0.306481 11.8271 0.273073L11.7997 1.00327L11.7724 1.73348C12.333 1.7545 12.8939 1.94392 13.6539 2.38926C14.4287 2.8432 15.3452 3.52252 16.6293 4.47597L17.0649 3.8893ZM6.18508 3.8893L6.6207 4.47597C7.90476 3.52252 8.82133 2.8432 9.59605 2.38926C10.3561 1.94392 10.917 1.7545 11.4776 1.73348L11.4503 1.00327L11.4229 0.273073C10.5318 0.306481 9.73128 0.616201 8.85723 1.12834C7.99787 1.63187 7.00771 2.36835 5.74946 3.30263L6.18508 3.8893ZM11.7997 1.00327L11.8271 0.273073C11.6924 0.268023 11.5576 0.268023 11.4229 0.273073L11.4503 1.00327L11.4776 1.73348C11.5758 1.72979 11.6742 1.72979 11.7724 1.73348L11.7997 1.00327ZM9.71838 16.4129V17.1436H13.5316V16.4129V15.6822H9.71838V16.4129Z" fill="#9E9E9E"/>
</svg>
