<svg width="21" height="20" viewBox="0 0 21 20" fill="none" xmlns="http://www.w3.org/2000/svg">
<path fill-rule="evenodd" clip-rule="evenodd" d="M9.31494 7.32999e-08H11.4351C12.842 -4.45578e-06 13.945 -7.99846e-06 14.8315 0.068788C15.7342 0.138841 16.4799 0.283852 17.1549 0.610525C18.2646 1.14756 19.1668 2.00447 19.7322 3.05846C20.0762 3.69959 20.2288 4.40792 20.3026 5.26533C20.375 6.10735 20.375 7.155 20.375 8.49128V11.1768C20.375 11.4267 20.375 11.5788 20.3684 11.7114C20.2246 14.5968 17.7943 16.9051 14.7564 17.0417C14.6168 17.048 14.4405 17.048 14.1482 17.048H14.119L14.0418 17.0481C13.1523 17.0535 12.2859 17.3172 11.5589 17.8038L11.5085 17.8379L8.8308 19.6545C7.28772 20.7014 5.26001 19.1896 5.96427 17.5172C6.05893 17.2925 5.88465 17.048 5.62978 17.048H5.0126C2.45132 17.048 0.375 15.0759 0.375 12.6431L0.375 8.4913C0.374995 7.15501 0.374992 6.10735 0.447422 5.26533C0.521177 4.40792 0.67385 3.69959 1.01778 3.05846C1.58319 2.00447 2.48538 1.14756 3.59506 0.610525C4.27006 0.283852 5.01582 0.138841 5.91852 0.0687881C6.80504 -7.99846e-06 7.90805 -4.45578e-06 9.31494 7.32999e-08ZM6.0438 1.52519C5.23624 1.58786 4.71548 1.70829 4.2935 1.91251C3.47331 2.30945 2.80647 2.94282 2.38856 3.72186C2.17355 4.12266 2.04676 4.61728 1.98077 5.38432C1.91406 6.15989 1.91346 7.14797 1.91346 8.52399V12.6431C1.91346 14.2688 3.30099 15.5867 5.0126 15.5867H5.62978C6.97306 15.5867 7.89158 16.8753 7.3927 18.0599C7.25907 18.3772 7.64381 18.6641 7.93659 18.4655L10.6143 16.6488L10.6727 16.6093C11.6564 15.951 12.8286 15.5942 14.0319 15.5868L14.119 15.5867C14.4489 15.5867 14.5855 15.5865 14.6837 15.5821C16.9291 15.4811 18.7254 13.775 18.8317 11.6423C18.8363 11.5488 18.8365 11.4339 18.8365 11.1531V8.52399C18.8365 7.14797 18.8359 6.15989 18.7692 5.38432C18.7032 4.61728 18.5764 4.12266 18.3614 3.72186C17.9435 2.94282 17.2767 2.30945 16.4565 1.91251C16.0345 1.70829 15.5138 1.58786 14.7062 1.52519C13.8896 1.46182 12.8494 1.46126 11.4006 1.46126H9.34936C7.90063 1.46126 6.86035 1.46182 6.0438 1.52519Z" fill="#9E9E9E"/>
<path d="M7.29808 8.52399C7.29808 9.06201 6.83888 9.49816 6.27244 9.49816C5.70599 9.49816 5.2468 9.06201 5.2468 8.52399C5.2468 7.98597 5.70599 7.54982 6.27244 7.54982C6.83888 7.54982 7.29808 7.98597 7.29808 8.52399Z" fill="#9E9E9E"/>
<path d="M11.4006 8.52399C11.4006 9.06201 10.9414 9.49816 10.375 9.49816C9.80855 9.49816 9.34936 9.06201 9.34936 8.52399C9.34936 7.98597 9.80855 7.54982 10.375 7.54982C10.9414 7.54982 11.4006 7.98597 11.4006 8.52399Z" fill="#9E9E9E"/>
<path d="M15.5032 8.52399C15.5032 9.06201 15.044 9.49816 14.4776 9.49816C13.9111 9.49816 13.4519 9.06201 13.4519 8.52399C13.4519 7.98597 13.9111 7.54982 14.4776 7.54982C15.044 7.54982 15.5032 7.98597 15.5032 8.52399Z" fill="#9E9E9E"/>
</svg>
