<svg width="21" height="20" viewBox="0 0 21 20" fill="none" xmlns="http://www.w3.org/2000/svg">
<path fill-rule="evenodd" clip-rule="evenodd" d="M9.54165 0C4.75519 0 0.875 3.88019 0.875 8.66665C0.875 13.4531 4.75519 17.3333 9.54165 17.3333C14.3281 17.3333 18.2083 13.4531 18.2083 8.66665C18.2083 3.88019 14.3281 0 9.54165 0ZM2.20833 8.66665C2.20833 4.61657 5.49157 1.33333 9.54165 1.33333C13.5917 1.33333 16.875 4.61657 16.875 8.66665C16.875 12.7167 13.5917 16 9.54165 16C5.49157 16 2.20833 12.7167 2.20833 8.66665Z" fill="#9E9E9E"/>
<path d="M17.1242 15.3064C16.8639 15.0461 16.4418 15.0461 16.1814 15.3064C15.9211 15.5668 15.9211 15.9889 16.1814 16.2492L19.7369 19.8047C19.9972 20.0651 20.4193 20.0651 20.6797 19.8047C20.94 19.5444 20.94 19.1223 20.6797 18.8619L17.1242 15.3064Z" fill="#9E9E9E"/>
</svg>
